<mxfile host="Electron" modified="2024-08-21T23:17:12.923Z" agent="Mozilla/5.0 (Windows NT 10.0; Win64; x64) AppleWebKit/537.36 (KHTML, like Gecko) draw.io/21.2.8 Chrome/112.0.5615.165 Electron/24.2.0 Safari/537.36" etag="A_yvOxCGubX3Pz2bQL_0" version="21.2.8" type="device">
  <diagram name="PÃ¡gina-1" id="aQTmrnNkfNWxgQob4O9e">
    <mxGraphModel dx="974" dy="354" grid="1" gridSize="10" guides="1" tooltips="1" connect="1" arrows="1" fold="1" page="0" pageScale="1" pageWidth="827" pageHeight="1169" math="0" shadow="0">
      <root>
        <mxCell id="0" />
        <mxCell id="1" parent="0" />
        <mxCell id="VkWd1TcqLhftO2qwGFEf-56" style="edgeStyle=orthogonalEdgeStyle;curved=1;rounded=0;orthogonalLoop=1;jettySize=auto;html=1;entryX=0.5;entryY=0;entryDx=0;entryDy=0;exitX=1;exitY=0;exitDx=0;exitDy=0;" edge="1" parent="1" source="VkWd1TcqLhftO2qwGFEf-3" target="VkWd1TcqLhftO2qwGFEf-4">
          <mxGeometry relative="1" as="geometry">
            <Array as="points">
              <mxPoint x="357" y="370" />
              <mxPoint x="500" y="370" />
            </Array>
          </mxGeometry>
        </mxCell>
        <mxCell id="VkWd1TcqLhftO2qwGFEf-57" style="edgeStyle=orthogonalEdgeStyle;curved=1;rounded=0;orthogonalLoop=1;jettySize=auto;html=1;entryX=0.5;entryY=1;entryDx=0;entryDy=0;exitX=0;exitY=1;exitDx=0;exitDy=0;" edge="1" parent="1" source="VkWd1TcqLhftO2qwGFEf-3" target="VkWd1TcqLhftO2qwGFEf-5">
          <mxGeometry relative="1" as="geometry">
            <Array as="points">
              <mxPoint x="243" y="480" />
              <mxPoint x="100" y="480" />
            </Array>
          </mxGeometry>
        </mxCell>
        <mxCell id="VkWd1TcqLhftO2qwGFEf-3" value="Sistema de reservas" style="ellipse;whiteSpace=wrap;html=1;" vertex="1" parent="1">
          <mxGeometry x="220.00000000000003" y="360" width="160" height="120" as="geometry" />
        </mxCell>
        <mxCell id="VkWd1TcqLhftO2qwGFEf-12" style="edgeStyle=orthogonalEdgeStyle;curved=1;rounded=0;orthogonalLoop=1;jettySize=auto;html=1;entryX=1;entryY=1;entryDx=0;entryDy=0;" edge="1" parent="1" source="VkWd1TcqLhftO2qwGFEf-4" target="VkWd1TcqLhftO2qwGFEf-3">
          <mxGeometry relative="1" as="geometry">
            <mxPoint x="60" y="475" as="targetPoint" />
            <Array as="points">
              <mxPoint x="500" y="480" />
              <mxPoint x="357" y="480" />
            </Array>
          </mxGeometry>
        </mxCell>
        <mxCell id="VkWd1TcqLhftO2qwGFEf-4" value="Cliente" style="rounded=0;whiteSpace=wrap;html=1;" vertex="1" parent="1">
          <mxGeometry x="440" y="390" width="120" height="60" as="geometry" />
        </mxCell>
        <mxCell id="VkWd1TcqLhftO2qwGFEf-10" style="edgeStyle=orthogonalEdgeStyle;rounded=0;orthogonalLoop=1;jettySize=auto;html=1;entryX=0;entryY=0;entryDx=0;entryDy=0;curved=1;exitX=0.5;exitY=0;exitDx=0;exitDy=0;" edge="1" parent="1" source="VkWd1TcqLhftO2qwGFEf-5" target="VkWd1TcqLhftO2qwGFEf-3">
          <mxGeometry relative="1" as="geometry">
            <Array as="points">
              <mxPoint x="100" y="370" />
              <mxPoint x="243" y="370" />
            </Array>
          </mxGeometry>
        </mxCell>
        <mxCell id="VkWd1TcqLhftO2qwGFEf-5" value="Empleado" style="rounded=0;whiteSpace=wrap;html=1;" vertex="1" parent="1">
          <mxGeometry x="40" y="390" width="120" height="60" as="geometry" />
        </mxCell>
        <mxCell id="VkWd1TcqLhftO2qwGFEf-14" value="0" style="text;html=1;strokeColor=none;fillColor=none;align=center;verticalAlign=middle;whiteSpace=wrap;rounded=0;" vertex="1" parent="1">
          <mxGeometry x="290" y="360" width="20" height="15" as="geometry" />
        </mxCell>
        <mxCell id="VkWd1TcqLhftO2qwGFEf-17" value="0" style="text;html=1;strokeColor=none;fillColor=none;align=center;verticalAlign=middle;whiteSpace=wrap;rounded=0;" vertex="1" parent="1">
          <mxGeometry x="90" y="405" width="20" height="5" as="geometry" />
        </mxCell>
        <mxCell id="VkWd1TcqLhftO2qwGFEf-18" value="0" style="text;html=1;strokeColor=none;fillColor=none;align=center;verticalAlign=middle;whiteSpace=wrap;rounded=0;" vertex="1" parent="1">
          <mxGeometry x="490" y="405" width="20" height="5" as="geometry" />
        </mxCell>
        <mxCell id="VkWd1TcqLhftO2qwGFEf-19" value="" style="endArrow=none;html=1;rounded=0;curved=1;" edge="1" parent="1">
          <mxGeometry width="50" height="50" relative="1" as="geometry">
            <mxPoint x="-0.8300000000000001" y="520" as="sourcePoint" />
            <mxPoint x="599.17" y="520" as="targetPoint" />
          </mxGeometry>
        </mxCell>
        <mxCell id="VkWd1TcqLhftO2qwGFEf-20" value="" style="endArrow=none;html=1;rounded=0;curved=1;" edge="1" parent="1">
          <mxGeometry width="50" height="50" relative="1" as="geometry">
            <mxPoint x="-0.8300000000000001" y="320" as="sourcePoint" />
            <mxPoint x="599.17" y="320" as="targetPoint" />
          </mxGeometry>
        </mxCell>
        <mxCell id="VkWd1TcqLhftO2qwGFEf-21" value="" style="endArrow=none;html=1;rounded=0;curved=1;" edge="1" parent="1">
          <mxGeometry width="50" height="50" relative="1" as="geometry">
            <mxPoint x="-0.8300000000000001" y="520" as="sourcePoint" />
            <mxPoint x="-0.8300000000000001" y="320" as="targetPoint" />
          </mxGeometry>
        </mxCell>
        <mxCell id="VkWd1TcqLhftO2qwGFEf-22" value="" style="endArrow=none;html=1;rounded=0;curved=1;" edge="1" parent="1">
          <mxGeometry width="50" height="50" relative="1" as="geometry">
            <mxPoint x="599.17" y="520" as="sourcePoint" />
            <mxPoint x="599.17" y="320" as="targetPoint" />
          </mxGeometry>
        </mxCell>
        <mxCell id="VkWd1TcqLhftO2qwGFEf-70" value="" style="edgeStyle=orthogonalEdgeStyle;curved=1;rounded=0;orthogonalLoop=1;jettySize=auto;html=1;" edge="1" parent="1" target="VkWd1TcqLhftO2qwGFEf-69">
          <mxGeometry relative="1" as="geometry">
            <mxPoint x="1160" y="400" as="sourcePoint" />
            <Array as="points">
              <mxPoint x="1160" y="378" />
              <mxPoint x="1035" y="378" />
            </Array>
          </mxGeometry>
        </mxCell>
        <mxCell id="VkWd1TcqLhftO2qwGFEf-59" value="Cliente" style="rounded=0;whiteSpace=wrap;html=1;" vertex="1" parent="1">
          <mxGeometry x="1100" y="400" width="120" height="40" as="geometry" />
        </mxCell>
        <mxCell id="VkWd1TcqLhftO2qwGFEf-72" style="edgeStyle=orthogonalEdgeStyle;curved=1;rounded=0;orthogonalLoop=1;jettySize=auto;html=1;entryX=0.5;entryY=0;entryDx=0;entryDy=0;" edge="1" parent="1" source="VkWd1TcqLhftO2qwGFEf-60" target="VkWd1TcqLhftO2qwGFEf-89">
          <mxGeometry relative="1" as="geometry">
            <Array as="points">
              <mxPoint x="720" y="380" />
              <mxPoint x="855" y="380" />
            </Array>
          </mxGeometry>
        </mxCell>
        <mxCell id="VkWd1TcqLhftO2qwGFEf-60" value="Personal" style="rounded=0;whiteSpace=wrap;html=1;" vertex="1" parent="1">
          <mxGeometry x="660" y="400" width="120" height="40" as="geometry" />
        </mxCell>
        <mxCell id="VkWd1TcqLhftO2qwGFEf-61" value="" style="endArrow=none;html=1;rounded=0;curved=1;" edge="1" parent="1">
          <mxGeometry width="50" height="50" relative="1" as="geometry">
            <mxPoint x="640" y="519.41" as="sourcePoint" />
            <mxPoint x="1240" y="519.41" as="targetPoint" />
          </mxGeometry>
        </mxCell>
        <mxCell id="VkWd1TcqLhftO2qwGFEf-62" value="" style="endArrow=none;html=1;rounded=0;curved=1;" edge="1" parent="1">
          <mxGeometry width="50" height="50" relative="1" as="geometry">
            <mxPoint x="640" y="319.41" as="sourcePoint" />
            <mxPoint x="1240" y="319.41" as="targetPoint" />
          </mxGeometry>
        </mxCell>
        <mxCell id="VkWd1TcqLhftO2qwGFEf-63" value="" style="endArrow=none;html=1;rounded=0;curved=1;" edge="1" parent="1">
          <mxGeometry width="50" height="50" relative="1" as="geometry">
            <mxPoint x="640" y="519.41" as="sourcePoint" />
            <mxPoint x="640" y="319.41" as="targetPoint" />
          </mxGeometry>
        </mxCell>
        <mxCell id="VkWd1TcqLhftO2qwGFEf-64" value="" style="endArrow=none;html=1;rounded=0;curved=1;" edge="1" parent="1">
          <mxGeometry width="50" height="50" relative="1" as="geometry">
            <mxPoint x="1240" y="519.41" as="sourcePoint" />
            <mxPoint x="1240" y="319.41" as="targetPoint" />
          </mxGeometry>
        </mxCell>
        <mxCell id="VkWd1TcqLhftO2qwGFEf-53" value="1" style="text;html=1;strokeColor=none;fillColor=none;align=center;verticalAlign=middle;whiteSpace=wrap;rounded=0;" vertex="1" parent="1">
          <mxGeometry x="705" y="397.5" width="30" height="20" as="geometry" />
        </mxCell>
        <mxCell id="VkWd1TcqLhftO2qwGFEf-77" style="edgeStyle=orthogonalEdgeStyle;curved=1;rounded=0;orthogonalLoop=1;jettySize=auto;html=1;" edge="1" parent="1" source="VkWd1TcqLhftO2qwGFEf-69" target="VkWd1TcqLhftO2qwGFEf-74">
          <mxGeometry relative="1" as="geometry" />
        </mxCell>
        <mxCell id="VkWd1TcqLhftO2qwGFEf-69" value="Carga de datos" style="ellipse;whiteSpace=wrap;html=1;rounded=0;" vertex="1" parent="1">
          <mxGeometry x="990" y="400" width="90" height="40" as="geometry" />
        </mxCell>
        <mxCell id="VkWd1TcqLhftO2qwGFEf-71" value="Acceder a datos" style="ellipse;whiteSpace=wrap;html=1;" vertex="1" parent="1">
          <mxGeometry x="800" y="400" width="110" height="40" as="geometry" />
        </mxCell>
        <mxCell id="VkWd1TcqLhftO2qwGFEf-73" style="edgeStyle=orthogonalEdgeStyle;curved=1;rounded=0;orthogonalLoop=1;jettySize=auto;html=1;exitX=0.5;exitY=1;exitDx=0;exitDy=0;" edge="1" parent="1" source="VkWd1TcqLhftO2qwGFEf-71" target="VkWd1TcqLhftO2qwGFEf-71">
          <mxGeometry relative="1" as="geometry" />
        </mxCell>
        <mxCell id="VkWd1TcqLhftO2qwGFEf-79" style="edgeStyle=orthogonalEdgeStyle;curved=1;rounded=0;orthogonalLoop=1;jettySize=auto;html=1;" edge="1" parent="1" source="VkWd1TcqLhftO2qwGFEf-74" target="VkWd1TcqLhftO2qwGFEf-71">
          <mxGeometry relative="1" as="geometry" />
        </mxCell>
        <mxCell id="VkWd1TcqLhftO2qwGFEf-74" value="Datos de Jugadores" style="text;html=1;strokeColor=none;fillColor=none;align=center;verticalAlign=middle;whiteSpace=wrap;rounded=0;" vertex="1" parent="1">
          <mxGeometry x="920" y="454.97" width="60" height="30" as="geometry" />
        </mxCell>
        <mxCell id="VkWd1TcqLhftO2qwGFEf-75" value="" style="endArrow=none;html=1;rounded=0;curved=1;" edge="1" parent="1">
          <mxGeometry width="50" height="50" relative="1" as="geometry">
            <mxPoint x="920" y="484.8" as="sourcePoint" />
            <mxPoint x="980" y="484.8" as="targetPoint" />
          </mxGeometry>
        </mxCell>
        <mxCell id="VkWd1TcqLhftO2qwGFEf-76" value="" style="endArrow=none;html=1;rounded=0;curved=1;" edge="1" parent="1">
          <mxGeometry width="50" height="50" relative="1" as="geometry">
            <mxPoint x="920" y="454.8" as="sourcePoint" />
            <mxPoint x="980" y="454.8" as="targetPoint" />
          </mxGeometry>
        </mxCell>
        <mxCell id="VkWd1TcqLhftO2qwGFEf-89" value="1" style="text;html=1;strokeColor=none;fillColor=none;align=center;verticalAlign=middle;whiteSpace=wrap;rounded=0;" vertex="1" parent="1">
          <mxGeometry x="840" y="400" width="30" height="20" as="geometry" />
        </mxCell>
        <mxCell id="VkWd1TcqLhftO2qwGFEf-91" value="1" style="text;html=1;strokeColor=none;fillColor=none;align=center;verticalAlign=middle;whiteSpace=wrap;rounded=0;" vertex="1" parent="1">
          <mxGeometry x="1020" y="405" width="30" height="10" as="geometry" />
        </mxCell>
        <mxCell id="VkWd1TcqLhftO2qwGFEf-92" value="1" style="text;html=1;strokeColor=none;fillColor=none;align=center;verticalAlign=middle;whiteSpace=wrap;rounded=0;" vertex="1" parent="1">
          <mxGeometry x="1145" y="397.5" width="30" height="20" as="geometry" />
        </mxCell>
        <mxCell id="VkWd1TcqLhftO2qwGFEf-95" value="" style="endArrow=none;html=1;rounded=0;curved=1;" edge="1" parent="1">
          <mxGeometry width="50" height="50" relative="1" as="geometry">
            <mxPoint x="1280" y="519.7099999999999" as="sourcePoint" />
            <mxPoint x="1880" y="519.7099999999999" as="targetPoint" />
          </mxGeometry>
        </mxCell>
        <mxCell id="VkWd1TcqLhftO2qwGFEf-96" value="" style="endArrow=none;html=1;rounded=0;curved=1;" edge="1" parent="1">
          <mxGeometry width="50" height="50" relative="1" as="geometry">
            <mxPoint x="1280" y="319.71000000000004" as="sourcePoint" />
            <mxPoint x="1880" y="319.71000000000004" as="targetPoint" />
          </mxGeometry>
        </mxCell>
        <mxCell id="VkWd1TcqLhftO2qwGFEf-97" value="" style="endArrow=none;html=1;rounded=0;curved=1;" edge="1" parent="1">
          <mxGeometry width="50" height="50" relative="1" as="geometry">
            <mxPoint x="1280" y="519.7099999999999" as="sourcePoint" />
            <mxPoint x="1280" y="319.71000000000004" as="targetPoint" />
          </mxGeometry>
        </mxCell>
        <mxCell id="VkWd1TcqLhftO2qwGFEf-98" value="" style="endArrow=none;html=1;rounded=0;curved=1;" edge="1" parent="1">
          <mxGeometry width="50" height="50" relative="1" as="geometry">
            <mxPoint x="1880" y="519.7099999999999" as="sourcePoint" />
            <mxPoint x="1880" y="319.71000000000004" as="targetPoint" />
          </mxGeometry>
        </mxCell>
        <mxCell id="VkWd1TcqLhftO2qwGFEf-99" value="Crear reserva" style="ellipse;whiteSpace=wrap;html=1;" vertex="1" parent="1">
          <mxGeometry x="1389.97" y="339.97" width="85" height="35" as="geometry" />
        </mxCell>
        <mxCell id="VkWd1TcqLhftO2qwGFEf-100" value="Confirmar reserva" style="ellipse;whiteSpace=wrap;html=1;" vertex="1" parent="1">
          <mxGeometry x="1549.97" y="345.01000000000005" width="110" height="35" as="geometry" />
        </mxCell>
        <mxCell id="VkWd1TcqLhftO2qwGFEf-101" value="" style="edgeStyle=orthogonalEdgeStyle;curved=1;rounded=0;orthogonalLoop=1;jettySize=auto;html=1;exitX=1;exitY=0.5;exitDx=0;exitDy=0;" edge="1" parent="1" source="VkWd1TcqLhftO2qwGFEf-103" target="VkWd1TcqLhftO2qwGFEf-108">
          <mxGeometry relative="1" as="geometry">
            <Array as="points">
              <mxPoint x="1869.97" y="424.97" />
              <mxPoint x="1869.97" y="474.97" />
            </Array>
          </mxGeometry>
        </mxCell>
        <mxCell id="VkWd1TcqLhftO2qwGFEf-125" style="edgeStyle=orthogonalEdgeStyle;curved=1;rounded=0;orthogonalLoop=1;jettySize=auto;html=1;entryX=1;entryY=0.5;entryDx=0;entryDy=0;" edge="1" parent="1" source="VkWd1TcqLhftO2qwGFEf-103" target="VkWd1TcqLhftO2qwGFEf-117">
          <mxGeometry relative="1" as="geometry">
            <Array as="points">
              <mxPoint x="1800" y="362" />
            </Array>
          </mxGeometry>
        </mxCell>
        <mxCell id="VkWd1TcqLhftO2qwGFEf-103" value="Cliente" style="rounded=0;whiteSpace=wrap;html=1;" vertex="1" parent="1">
          <mxGeometry x="1739.97" y="404.97" width="120" height="40" as="geometry" />
        </mxCell>
        <mxCell id="VkWd1TcqLhftO2qwGFEf-104" style="edgeStyle=orthogonalEdgeStyle;curved=1;rounded=0;orthogonalLoop=1;jettySize=auto;html=1;" edge="1" parent="1" source="VkWd1TcqLhftO2qwGFEf-105" target="VkWd1TcqLhftO2qwGFEf-110">
          <mxGeometry relative="1" as="geometry">
            <Array as="points">
              <mxPoint x="1289.97" y="424.97" />
              <mxPoint x="1289.97" y="474.97" />
            </Array>
          </mxGeometry>
        </mxCell>
        <mxCell id="VkWd1TcqLhftO2qwGFEf-105" value="Personal" style="rounded=0;whiteSpace=wrap;html=1;" vertex="1" parent="1">
          <mxGeometry x="1299.97" y="404.97" width="120" height="40" as="geometry" />
        </mxCell>
        <mxCell id="VkWd1TcqLhftO2qwGFEf-106" value="2" style="text;html=1;strokeColor=none;fillColor=none;align=center;verticalAlign=middle;whiteSpace=wrap;rounded=0;" vertex="1" parent="1">
          <mxGeometry x="1344.97" y="402.47" width="30" height="20" as="geometry" />
        </mxCell>
        <mxCell id="VkWd1TcqLhftO2qwGFEf-107" style="edgeStyle=orthogonalEdgeStyle;curved=1;rounded=0;orthogonalLoop=1;jettySize=auto;html=1;" edge="1" parent="1" source="VkWd1TcqLhftO2qwGFEf-108" target="VkWd1TcqLhftO2qwGFEf-113">
          <mxGeometry relative="1" as="geometry" />
        </mxCell>
        <mxCell id="VkWd1TcqLhftO2qwGFEf-108" value="Carga de datos" style="ellipse;whiteSpace=wrap;html=1;rounded=0;" vertex="1" parent="1">
          <mxGeometry x="1709.97" y="454.97" width="90" height="40" as="geometry" />
        </mxCell>
        <mxCell id="VkWd1TcqLhftO2qwGFEf-109" style="edgeStyle=orthogonalEdgeStyle;curved=1;rounded=0;orthogonalLoop=1;jettySize=auto;html=1;exitX=0.5;exitY=0;exitDx=0;exitDy=0;entryX=0.5;entryY=1;entryDx=0;entryDy=0;" edge="1" parent="1" source="VkWd1TcqLhftO2qwGFEf-110" target="VkWd1TcqLhftO2qwGFEf-99">
          <mxGeometry relative="1" as="geometry">
            <Array as="points">
              <mxPoint x="1432.97" y="454.97" />
            </Array>
          </mxGeometry>
        </mxCell>
        <mxCell id="VkWd1TcqLhftO2qwGFEf-110" value="Acceder a datos" style="ellipse;whiteSpace=wrap;html=1;" vertex="1" parent="1">
          <mxGeometry x="1399.97" y="454.97" width="110" height="40" as="geometry" />
        </mxCell>
        <mxCell id="VkWd1TcqLhftO2qwGFEf-111" style="edgeStyle=orthogonalEdgeStyle;curved=1;rounded=0;orthogonalLoop=1;jettySize=auto;html=1;exitX=0.5;exitY=1;exitDx=0;exitDy=0;" edge="1" parent="1" source="VkWd1TcqLhftO2qwGFEf-110" target="VkWd1TcqLhftO2qwGFEf-110">
          <mxGeometry relative="1" as="geometry" />
        </mxCell>
        <mxCell id="VkWd1TcqLhftO2qwGFEf-112" style="edgeStyle=orthogonalEdgeStyle;curved=1;rounded=0;orthogonalLoop=1;jettySize=auto;html=1;" edge="1" parent="1" source="VkWd1TcqLhftO2qwGFEf-113" target="VkWd1TcqLhftO2qwGFEf-110">
          <mxGeometry relative="1" as="geometry" />
        </mxCell>
        <mxCell id="VkWd1TcqLhftO2qwGFEf-113" value="Datos de Jugadores" style="text;html=1;strokeColor=none;fillColor=none;align=center;verticalAlign=middle;whiteSpace=wrap;rounded=0;" vertex="1" parent="1">
          <mxGeometry x="1619.97" y="459.97" width="60" height="30" as="geometry" />
        </mxCell>
        <mxCell id="VkWd1TcqLhftO2qwGFEf-114" value="" style="endArrow=none;html=1;rounded=0;curved=1;" edge="1" parent="1">
          <mxGeometry width="50" height="50" relative="1" as="geometry">
            <mxPoint x="1619.97" y="489.77000000000004" as="sourcePoint" />
            <mxPoint x="1679.97" y="489.77000000000004" as="targetPoint" />
          </mxGeometry>
        </mxCell>
        <mxCell id="VkWd1TcqLhftO2qwGFEf-115" value="" style="endArrow=none;html=1;rounded=0;curved=1;" edge="1" parent="1">
          <mxGeometry width="50" height="50" relative="1" as="geometry">
            <mxPoint x="1619.97" y="459.77000000000004" as="sourcePoint" />
            <mxPoint x="1679.97" y="459.77000000000004" as="targetPoint" />
          </mxGeometry>
        </mxCell>
        <mxCell id="VkWd1TcqLhftO2qwGFEf-116" style="edgeStyle=orthogonalEdgeStyle;curved=1;rounded=0;orthogonalLoop=1;jettySize=auto;html=1;entryX=0.5;entryY=0;entryDx=0;entryDy=0;" edge="1" parent="1" source="VkWd1TcqLhftO2qwGFEf-117" target="VkWd1TcqLhftO2qwGFEf-100">
          <mxGeometry relative="1" as="geometry">
            <Array as="points">
              <mxPoint x="1729.97" y="325.01000000000005" />
              <mxPoint x="1604.97" y="325.01000000000005" />
            </Array>
          </mxGeometry>
        </mxCell>
        <mxCell id="VkWd1TcqLhftO2qwGFEf-117" value="Pago del servicio" style="ellipse;whiteSpace=wrap;html=1;rounded=0;" vertex="1" parent="1">
          <mxGeometry x="1679.97" y="345.01000000000005" width="100" height="35" as="geometry" />
        </mxCell>
        <mxCell id="VkWd1TcqLhftO2qwGFEf-118" value="2" style="text;html=1;strokeColor=none;fillColor=none;align=center;verticalAlign=middle;whiteSpace=wrap;rounded=0;" vertex="1" parent="1">
          <mxGeometry x="1422.47" y="339.97" width="20" height="20" as="geometry" />
        </mxCell>
        <mxCell id="VkWd1TcqLhftO2qwGFEf-119" value="2" style="text;html=1;strokeColor=none;fillColor=none;align=center;verticalAlign=middle;whiteSpace=wrap;rounded=0;" vertex="1" parent="1">
          <mxGeometry x="1439.97" y="454.97" width="30" height="20" as="geometry" />
        </mxCell>
        <mxCell id="VkWd1TcqLhftO2qwGFEf-120" value="2" style="text;html=1;strokeColor=none;fillColor=none;align=center;verticalAlign=middle;whiteSpace=wrap;rounded=0;" vertex="1" parent="1">
          <mxGeometry x="1594.97" y="345.01000000000005" width="20" height="10" as="geometry" />
        </mxCell>
        <mxCell id="VkWd1TcqLhftO2qwGFEf-121" value="2" style="text;html=1;strokeColor=none;fillColor=none;align=center;verticalAlign=middle;whiteSpace=wrap;rounded=0;" vertex="1" parent="1">
          <mxGeometry x="1739.97" y="459.97" width="30" height="10" as="geometry" />
        </mxCell>
        <mxCell id="VkWd1TcqLhftO2qwGFEf-122" value="2" style="text;html=1;strokeColor=none;fillColor=none;align=center;verticalAlign=middle;whiteSpace=wrap;rounded=0;" vertex="1" parent="1">
          <mxGeometry x="1784.97" y="402.47" width="30" height="20" as="geometry" />
        </mxCell>
        <mxCell id="VkWd1TcqLhftO2qwGFEf-123" value="2" style="text;html=1;strokeColor=none;fillColor=none;align=center;verticalAlign=middle;whiteSpace=wrap;rounded=0;" vertex="1" parent="1">
          <mxGeometry x="1714.97" y="345.01000000000005" width="30" height="15" as="geometry" />
        </mxCell>
      </root>
    </mxGraphModel>
  </diagram>
</mxfile>
